<svg xmlns="http://www.w3.org/2000/svg" viewBox="-24 -74 498 88"><path d="M54.97 -51.21 54.59 -51.04Q51.30 -54.08 46.68 -55.89Q42.06 -57.71 36.53 -57.71Q31.21 -57.71 26.78 -56.04Q22.35 -54.37 19.17 -51.21Q15.98 -48.05 14.21 -43.45Q12.44 -38.85 12.44 -32.99Q12.44 -26.53 14.13 -20.94Q15.82 -15.35 19.15 -11.26Q22.48 -7.17 27.48 -4.83Q32.48 -2.48 39.15 -2.48Q41.55 -2.48 43.95 -2.99Q46.36 -3.50 48.57 -4.49Q50.79 -5.48 52.75 -6.89Q54.71 -8.31 56.32 -10.12L56.78 -9.82L53.40 -1.22Q50.24 0.0 46.42 0.65Q42.60 1.30 38.72 1.30Q30.92 1.30 24.44 -0.94Q17.97 -3.20 13.31 -7.34Q8.64 -11.47 6.05 -17.27Q3.45 -23.07 3.45 -30.16Q3.45 -34.17 4.49 -38.05Q5.52 -41.93 7.50 -45.43Q9.49 -48.93 12.40 -51.86Q15.31 -54.80 19.04 -56.95Q22.78 -59.10 27.27 -60.30Q31.76 -61.50 36.99 -61.50Q45.14 -61.50 52.10 -59.02Z" fill="#17191C"/><rect x="54.5" y="-42.6" width="26" height="3" rx="1.5" fill="#C9A15C"/><rect x="46.5" y="-31.7" width="34" height="3" rx="1.5" fill="#C9A15C"/><rect x="54.5" y="-20.9" width="26" height="3" rx="1.5" fill="#C9A15C"/><path d="M147.19 -37.93 146.90 -37.81Q144.47 -40.06 141.05 -41.40Q137.62 -42.75 133.53 -42.75Q129.59 -42.75 126.31 -41.51Q123.03 -40.28 120.67 -37.93Q118.31 -35.59 117.00 -32.18Q115.69 -28.78 115.69 -24.43Q115.69 -19.65 116.94 -15.51Q118.19 -11.37 120.65 -8.34Q123.12 -5.31 126.83 -3.57Q130.53 -1.84 135.47 -1.84Q137.25 -1.84 139.03 -2.21Q140.81 -2.59 142.45 -3.32Q144.09 -4.06 145.55 -5.10Q147.00 -6.15 148.19 -7.5L148.53 -7.28L146.03 -0.90Q143.69 0.0 140.86 0.48Q138.03 0.96 135.15 0.96Q129.37 0.96 124.58 -0.70Q119.78 -2.37 116.33 -5.43Q112.87 -8.5 110.95 -12.79Q109.03 -17.09 109.03 -22.34Q109.03 -25.31 109.80 -28.18Q110.56 -31.06 112.03 -33.65Q113.50 -36.25 115.65 -38.42Q117.81 -40.59 120.58 -42.18Q123.34 -43.78 126.67 -44.67Q130.00 -45.56 133.87 -45.56Q139.90 -45.56 145.06 -43.71Z" fill="#17191C"/><path d="M181.09 -45.56Q186.30 -45.56 190.73 -43.85Q195.15 -42.15 198.37 -39.07Q201.59 -36.0 203.40 -31.68Q205.21 -27.37 205.21 -22.15Q205.21 -19.18 204.52 -16.31Q203.84 -13.43 202.51 -10.87Q201.18 -8.31 199.24 -6.14Q197.30 -3.96 194.82 -2.39Q192.34 -0.81 189.34 0.07Q186.34 0.96 182.87 0.96Q177.65 0.96 173.23 -0.70Q168.80 -2.37 165.59 -5.43Q162.37 -8.5 160.55 -12.79Q158.74 -17.09 158.74 -22.34Q158.74 -25.31 159.43 -28.18Q160.12 -31.06 161.45 -33.65Q162.77 -36.25 164.70 -38.42Q166.62 -40.59 169.10 -42.18Q171.59 -43.78 174.60 -44.67Q177.62 -45.56 181.09 -45.56ZM182.87 -1.84Q186.34 -1.84 189.21 -3.09Q192.09 -4.34 194.16 -6.71Q196.24 -9.09 197.40 -12.51Q198.55 -15.93 198.55 -20.28Q198.55 -25.09 197.45 -29.20Q196.34 -33.31 194.15 -36.32Q191.96 -39.34 188.70 -41.04Q185.43 -42.75 181.09 -42.75Q177.62 -42.75 174.74 -41.51Q171.87 -40.28 169.79 -37.93Q167.71 -35.59 166.55 -32.18Q165.40 -28.78 165.40 -24.43Q165.40 -19.65 166.49 -15.51Q167.59 -11.37 169.77 -8.34Q171.96 -5.31 175.24 -3.57Q178.52 -1.84 182.87 -1.84Z" fill="#17191C"/><path d="M216.42 -0.12Q216.77 -0.62 217.20 -1.60Q217.64 -2.59 217.89 -4.09Q218.24 -6.28 218.66 -9.01Q219.08 -11.75 219.53 -14.75Q219.99 -17.75 220.44 -20.89Q220.89 -24.03 221.31 -27.07Q221.74 -30.12 222.13 -32.95Q222.52 -35.78 222.83 -38.12Q223.14 -40.46 223.35 -42.20Q223.55 -43.93 223.64 -44.81H227.61L247.27 -8.06L266.77 -44.81H269.74L274.86 -7.68Q275.08 -5.93 275.33 -4.68Q275.58 -3.43 275.83 -2.54Q276.08 -1.65 276.31 -1.07Q276.55 -0.5 276.77 -0.12V0.0H268.89V-0.12Q269.05 -0.46 269.19 -1.25Q269.33 -2.03 269.33 -3.12Q269.33 -3.53 269.30 -3.95Q269.27 -4.37 269.20 -4.87L265.24 -34.81L246.80 -0.12L244.64 -0.37L226.08 -35.12Q224.99 -27.71 224.17 -21.43Q223.83 -18.75 223.49 -16.07Q223.14 -13.40 222.88 -11.09Q222.61 -8.78 222.45 -7.01Q222.30 -5.25 222.30 -4.40Q222.30 -3.34 222.36 -2.53Q222.42 -1.71 222.49 -1.15Q222.58 -0.5 222.67 0.0H216.42Z" fill="#17191C"/><path d="M296.79 -19.84Q299.85 -19.28 302.40 -19.73Q304.95 -20.18 306.78 -21.67Q308.60 -23.15 309.62 -25.68Q310.64 -28.21 310.64 -31.87Q310.64 -34.40 310.10 -36.48Q309.57 -38.56 308.53 -40.01Q307.48 -41.46 305.89 -42.26Q304.29 -43.06 302.17 -43.06Q300.82 -43.06 299.82 -42.95Q298.82 -42.84 298.14 -42.71Q297.32 -42.56 296.79 -42.37ZM290.20 -44.81Q290.82 -44.75 291.51 -44.68Q292.10 -44.62 292.84 -44.60Q293.57 -44.59 294.35 -44.59Q295.57 -44.59 297.65 -44.89Q299.73 -45.18 302.95 -45.18Q305.95 -45.18 308.5 -44.31Q311.04 -43.43 312.92 -41.75Q314.79 -40.06 315.84 -37.64Q316.89 -35.21 316.89 -32.12Q316.89 -27.96 315.23 -24.93Q313.57 -21.90 310.79 -20.03Q308.01 -18.15 304.39 -17.48Q300.76 -16.81 296.79 -17.40V-12.21Q296.79 -9.56 296.87 -7.57Q296.95 -5.59 297.06 -4.15Q297.17 -2.71 297.34 -1.75Q297.51 -0.78 297.70 -0.12V0.0H290.20V-0.12Q290.39 -0.78 290.56 -1.75Q290.73 -2.71 290.85 -4.15Q290.98 -5.59 291.04 -7.57Q291.10 -9.56 291.10 -12.21V-32.56Q291.10 -35.21 291.04 -37.20Q290.98 -39.18 290.85 -40.64Q290.73 -42.09 290.56 -43.06Q290.39 -44.03 290.20 -44.68Z" fill="#17191C"/><path d="M341.16 -42.06Q337.47 -42.06 334.50 -41.73Q331.54 -41.40 329.38 -41.03Q326.88 -40.56 324.91 -40.0L325.82 -45.06Q326.19 -45.03 326.94 -45.0Q327.69 -44.96 328.61 -44.93Q329.54 -44.90 330.55 -44.89Q331.57 -44.87 332.47 -44.85Q333.38 -44.84 334.08 -44.82Q334.79 -44.81 335.10 -44.81H352.94Q353.25 -44.81 353.96 -44.82Q354.66 -44.84 355.57 -44.85Q356.47 -44.87 357.49 -44.89Q358.50 -44.90 359.43 -44.93Q360.35 -44.96 361.10 -45.0Q361.85 -45.03 362.22 -45.06L363.13 -40.0Q361.13 -40.56 358.63 -41.03Q356.47 -41.40 353.50 -41.73Q350.54 -42.06 346.85 -42.06V-12.21Q346.85 -9.56 346.93 -7.57Q347.00 -5.59 347.11 -4.15Q347.22 -2.71 347.4 -1.75Q347.57 -0.78 347.75 -0.12V0.0H340.29V-0.12Q340.47 -0.78 340.63 -1.75Q340.79 -2.71 340.91 -4.15Q341.04 -5.59 341.10 -7.57Q341.16 -9.56 341.16 -12.21Z" fill="#17191C"/><path d="M406.06 -32.56Q406.06 -35.21 406.00 -37.20Q405.94 -39.18 405.81 -40.64Q405.69 -42.09 405.53 -43.06Q405.37 -44.03 405.19 -44.68V-44.81H410.75V-44.68Q410.56 -44.03 410.39 -43.06Q410.22 -42.09 410.11 -40.64Q410.00 -39.18 409.92 -37.20Q409.84 -35.21 409.84 -32.56V-15.68Q409.84 -11.21 408.56 -8.06Q407.28 -4.90 405.00 -2.89Q402.72 -0.87 399.53 0.04Q396.34 0.96 392.56 0.96Q388.78 0.96 385.51 0.09Q382.25 -0.78 379.83 -2.73Q377.40 -4.68 376.03 -7.79Q374.65 -10.90 374.65 -15.37V-32.56Q374.65 -35.21 374.59 -37.20Q374.53 -39.18 374.40 -40.64Q374.28 -42.09 374.11 -43.06Q373.94 -44.03 373.75 -44.68V-44.81H381.25V-44.68Q381.06 -44.03 380.89 -43.06Q380.72 -42.09 380.59 -40.64Q380.47 -39.18 380.40 -37.20Q380.34 -35.21 380.34 -32.56V-15.03Q380.34 -11.31 381.45 -8.89Q382.56 -6.46 384.37 -5.04Q386.19 -3.62 388.50 -3.06Q390.81 -2.5 393.22 -2.5Q395.62 -2.5 397.94 -3.06Q400.25 -3.62 402.04 -5.04Q403.84 -6.46 404.95 -8.89Q406.06 -11.31 406.06 -15.03Z" fill="#17191C"/><path d="M444.52 -37.68H443.84Q443.59 -38.40 443.04 -39.31Q442.49 -40.21 441.60 -41.01Q440.71 -41.81 439.44 -42.34Q438.18 -42.87 436.46 -42.87Q434.93 -42.87 433.74 -42.40Q432.55 -41.93 431.76 -41.09Q430.96 -40.25 430.55 -39.09Q430.15 -37.93 430.15 -36.53Q430.15 -34.28 431.41 -32.23Q432.68 -30.18 434.59 -28.18Q436.49 -26.18 438.71 -24.18Q440.93 -22.18 442.84 -20.03Q444.74 -17.87 446.01 -15.51Q447.27 -13.15 447.27 -10.43Q447.27 -8.40 446.57 -6.35Q445.87 -4.31 444.40 -2.68Q442.93 -1.06 440.62 -0.04Q438.30 0.96 435.12 0.96Q433.34 0.96 431.73 0.64Q430.12 0.31 428.76 -0.17Q427.40 -0.65 426.32 -1.21Q425.24 -1.78 424.55 -2.25L425.27 -9.15H426.05Q426.40 -7.68 427.18 -6.35Q427.96 -5.03 429.10 -4.01Q430.24 -3.0 431.71 -2.39Q433.18 -1.78 434.93 -1.78Q436.52 -1.78 437.79 -2.26Q439.05 -2.75 439.96 -3.60Q440.87 -4.46 441.35 -5.65Q441.84 -6.84 441.84 -8.25Q441.84 -10.21 441.12 -11.89Q440.40 -13.56 439.23 -15.06Q438.05 -16.56 436.57 -17.96Q435.09 -19.37 433.52 -20.79Q431.96 -22.21 430.48 -23.71Q428.99 -25.21 427.82 -26.92Q426.65 -28.62 425.93 -30.57Q425.21 -32.53 425.21 -34.87Q425.21 -37.34 426.16 -39.32Q427.12 -41.31 428.69 -42.71Q430.27 -44.12 432.27 -44.87Q434.27 -45.62 436.40 -45.62Q437.96 -45.62 439.27 -45.37Q440.59 -45.12 441.63 -44.78Q442.68 -44.43 443.46 -44.09Q444.24 -43.75 444.74 -43.53Z" fill="#17191C"/></svg>