<svg xmlns="http://www.w3.org/2000/svg" viewBox="-8 -80 102 90"><path d="M63.62 -59.27 63.18 -59.08Q59.37 -62.59 54.02 -64.69Q48.68 -66.79 42.28 -66.79Q36.13 -66.79 31.00 -64.86Q25.87 -62.93 22.19 -59.27Q18.50 -55.61 16.45 -50.29Q14.40 -44.97 14.40 -38.18Q14.40 -30.71 16.35 -24.24Q18.31 -17.77 22.16 -13.03Q26.02 -8.30 31.81 -5.59Q37.59 -2.88 45.31 -2.88Q48.09 -2.88 50.87 -3.46Q53.66 -4.05 56.22 -5.20Q58.78 -6.34 61.05 -7.98Q63.33 -9.61 65.18 -11.71L65.72 -11.37L61.81 -1.41Q58.15 0.0 53.73 0.75Q49.31 1.51 44.82 1.51Q35.79 1.51 28.29 -1.09Q20.80 -3.71 15.40 -8.49Q10.00 -13.28 7.00 -19.99Q4.00 -26.70 4.00 -34.91Q4.00 -39.55 5.20 -44.04Q6.39 -48.53 8.69 -52.58Q10.98 -56.64 14.35 -60.03Q17.72 -63.42 22.04 -65.91Q26.36 -68.40 31.56 -69.79Q36.76 -71.19 42.82 -71.19Q52.24 -71.19 60.30 -68.31Z" fill="#17191C"/><rect x="63.7" y="-49.2" width="30" height="3.2" rx="1.6" fill="#C9A15C"/><rect x="55.7" y="-36.6" width="38" height="3.2" rx="1.6" fill="#C9A15C"/><rect x="63.7" y="-24.0" width="30" height="3.2" rx="1.6" fill="#C9A15C"/></svg>